<svg width="280" height="70" viewBox="0 0 280 70" fill="none" xmlns="http://www.w3.org/2000/svg">
<path d="M50.2126 48.584H61.4926V53H44.7406V19.64H50.2126V48.584ZM68.8528 23.048C67.8608 23.048 67.0288 22.712 66.3568 22.04C65.6848 21.368 65.3488 20.536 65.3488 19.544C65.3488 18.552 65.6848 17.72 66.3568 17.048C67.0288 16.376 67.8608 16.04 68.8528 16.04C69.8128 16.04 70.6288 16.376 71.3008 17.048C71.9728 17.72 72.3088 18.552 72.3088 19.544C72.3088 20.536 71.9728 21.368 71.3008 22.04C70.6288 22.712 69.8128 23.048 68.8528 23.048ZM71.5408 26.552V53H66.0688V26.552H71.5408ZM92.069 26.12C94.149 26.12 96.005 26.552 97.637 27.416C99.301 28.28 100.597 29.56 101.525 31.256C102.453 32.952 102.917 35 102.917 37.4V53H97.493V38.216C97.493 35.848 96.901 34.04 95.717 32.792C94.533 31.512 92.917 30.872 90.869 30.872C88.821 30.872 87.189 31.512 85.973 32.792C84.789 34.04 84.197 35.848 84.197 38.216V53H78.725V26.552H84.197V29.576C85.093 28.488 86.229 27.64 87.605 27.032C89.013 26.424 90.501 26.12 92.069 26.12ZM120.361 39.8L132.553 53H125.161L115.369 41.624V53H109.897V17.48H115.369V38.12L124.969 26.552H132.553L120.361 39.8ZM160.715 39.128C160.715 40.12 160.651 41.016 160.523 41.816H140.315C140.475 43.928 141.259 45.624 142.667 46.904C144.075 48.184 145.803 48.824 147.851 48.824C150.795 48.824 152.875 47.592 154.091 45.128H159.995C159.195 47.56 157.739 49.56 155.627 51.128C153.547 52.664 150.955 53.432 147.851 53.432C145.323 53.432 143.051 52.872 141.035 51.752C139.051 50.6 137.483 49 136.331 46.952C135.211 44.872 134.651 42.472 134.651 39.752C134.651 37.032 135.195 34.648 136.283 32.6C137.403 30.52 138.955 28.92 140.939 27.8C142.955 26.68 145.259 26.12 147.851 26.12C150.347 26.12 152.571 26.664 154.523 27.752C156.475 28.84 157.995 30.376 159.083 32.36C160.171 34.312 160.715 36.568 160.715 39.128ZM155.003 37.4C154.971 35.384 154.251 33.768 152.843 32.552C151.435 31.336 149.691 30.728 147.611 30.728C145.723 30.728 144.107 31.336 142.763 32.552C141.419 33.736 140.619 35.352 140.363 37.4H155.003ZM164.276 39.656C164.276 37 164.82 34.648 165.908 32.6C167.028 30.552 168.532 28.968 170.42 27.848C172.34 26.696 174.468 26.12 176.804 26.12C178.532 26.12 180.228 26.504 181.892 27.272C183.588 28.008 184.932 29 185.924 30.248V17.48H191.444V53H185.924V49.016C185.028 50.296 183.78 51.352 182.18 52.184C180.612 53.016 178.804 53.432 176.756 53.432C174.452 53.432 172.34 52.856 170.42 51.704C168.532 50.52 167.028 48.888 165.908 46.808C164.82 44.696 164.276 42.312 164.276 39.656ZM185.924 39.752C185.924 37.928 185.54 36.344 184.772 35C184.036 33.656 183.06 32.632 181.844 31.928C180.628 31.224 179.316 30.872 177.908 30.872C176.5 30.872 175.188 31.224 173.972 31.928C172.756 32.6 171.764 33.608 170.996 34.952C170.26 36.264 169.892 37.832 169.892 39.656C169.892 41.48 170.26 43.08 170.996 44.456C171.764 45.832 172.756 46.888 173.972 47.624C175.22 48.328 176.532 48.68 177.908 48.68C179.316 48.68 180.628 48.328 181.844 47.624C183.06 46.92 184.036 45.896 184.772 44.552C185.54 43.176 185.924 41.576 185.924 39.752ZM201.415 23.048C200.423 23.048 199.591 22.712 198.919 22.04C198.247 21.368 197.911 20.536 197.911 19.544C197.911 18.552 198.247 17.72 198.919 17.048C199.591 16.376 200.423 16.04 201.415 16.04C202.375 16.04 203.191 16.376 203.863 17.048C204.535 17.72 204.871 18.552 204.871 19.544C204.871 20.536 204.535 21.368 203.863 22.04C203.191 22.712 202.375 23.048 201.415 23.048ZM204.103 26.552V53H198.631V26.552H204.103ZM224.632 26.12C226.712 26.12 228.568 26.552 230.2 27.416C231.864 28.28 233.16 29.56 234.088 31.256C235.016 32.952 235.48 35 235.48 37.4V53H230.056V38.216C230.056 35.848 229.464 34.04 228.28 32.792C227.096 31.512 225.48 30.872 223.432 30.872C221.384 30.872 219.752 31.512 218.536 32.792C217.352 34.04 216.76 35.848 216.76 38.216V53H211.288V26.552H216.76V29.576C217.656 28.488 218.792 27.64 220.168 27.032C221.576 26.424 223.064 26.12 224.632 26.12Z" fill="#637A98"/>
<path d="M41.1406 57.8H238.84V60.2H41.1406V57.8Z" fill="#637A98"/>
<rect x="269" y="35" width="11" height="9" fill="#D9D9D9" fill-opacity="0.01"/>
<rect y="35" width="11" height="9" fill="#D9D9D9" fill-opacity="0.01"/>
</svg>
