<svg width="280" height="70" viewBox="0 0 280 70" fill="none" xmlns="http://www.w3.org/2000/svg">
<path d="M67.9749 29.576C67.9749 31.272 67.5749 32.872 66.7749 34.376C65.9749 35.88 64.6949 37.112 62.9349 38.072C61.1749 39 58.9189 39.464 56.1669 39.464H50.1189V53H44.6469V19.64H56.1669C58.7269 19.64 60.8869 20.088 62.6469 20.984C64.4389 21.848 65.7669 23.032 66.6309 24.536C67.5269 26.04 67.9749 27.72 67.9749 29.576ZM56.1669 35C58.2469 35 59.7989 34.536 60.8229 33.608C61.8469 32.648 62.3589 31.304 62.3589 29.576C62.3589 25.928 60.2949 24.104 56.1669 24.104H50.1189V35H56.1669ZM84.6658 53.432C82.1698 53.432 79.9138 52.872 77.8978 51.752C75.8818 50.6 74.2978 49 73.1458 46.952C71.9938 44.872 71.4178 42.472 71.4178 39.752C71.4178 37.064 72.0098 34.68 73.1938 32.6C74.3778 30.52 75.9938 28.92 78.0418 27.8C80.0898 26.68 82.3778 26.12 84.9058 26.12C87.4338 26.12 89.7218 26.68 91.7698 27.8C93.8178 28.92 95.4338 30.52 96.6178 32.6C97.8018 34.68 98.3938 37.064 98.3938 39.752C98.3938 42.44 97.7858 44.824 96.5698 46.904C95.3538 48.984 93.6898 50.6 91.5778 51.752C89.4978 52.872 87.1938 53.432 84.6658 53.432ZM84.6658 48.68C86.0738 48.68 87.3858 48.344 88.6018 47.672C89.8498 47 90.8578 45.992 91.6258 44.648C92.3938 43.304 92.7778 41.672 92.7778 39.752C92.7778 37.832 92.4098 36.216 91.6738 34.904C90.9378 33.56 89.9618 32.552 88.7458 31.88C87.5298 31.208 86.2178 30.872 84.8098 30.872C83.4018 30.872 82.0898 31.208 80.8738 31.88C79.6898 32.552 78.7458 33.56 78.0418 34.904C77.3378 36.216 76.9858 37.832 76.9858 39.752C76.9858 42.6 77.7058 44.808 79.1458 46.376C80.6178 47.912 82.4578 48.68 84.6658 48.68ZM109.275 30.392C110.075 29.048 111.131 28.008 112.443 27.272C113.787 26.504 115.371 26.12 117.195 26.12V31.784H115.803C113.659 31.784 112.027 32.328 110.907 33.416C109.819 34.504 109.275 36.392 109.275 39.08V53H103.803V26.552H109.275V30.392ZM128.609 31.016V45.656C128.609 46.648 128.833 47.368 129.281 47.816C129.761 48.232 130.561 48.44 131.681 48.44H135.041V53H130.721C128.257 53 126.369 52.424 125.057 51.272C123.745 50.12 123.089 48.248 123.089 45.656V31.016H119.969V26.552H123.089V19.976H128.609V26.552H135.041V31.016H128.609ZM151.172 31.016H146.276V53H140.756V31.016H137.636V26.552H140.756V24.68C140.756 21.64 141.556 19.432 143.156 18.056C144.788 16.648 147.332 15.944 150.788 15.944V20.504C149.124 20.504 147.956 20.824 147.284 21.464C146.612 22.072 146.276 23.144 146.276 24.68V26.552H151.172V31.016ZM167.494 53.432C164.998 53.432 162.742 52.872 160.726 51.752C158.71 50.6 157.126 49 155.974 46.952C154.822 44.872 154.246 42.472 154.246 39.752C154.246 37.064 154.838 34.68 156.022 32.6C157.206 30.52 158.822 28.92 160.87 27.8C162.918 26.68 165.206 26.12 167.734 26.12C170.262 26.12 172.55 26.68 174.598 27.8C176.646 28.92 178.262 30.52 179.446 32.6C180.63 34.68 181.222 37.064 181.222 39.752C181.222 42.44 180.614 44.824 179.398 46.904C178.182 48.984 176.518 50.6 174.406 51.752C172.326 52.872 170.022 53.432 167.494 53.432ZM167.494 48.68C168.902 48.68 170.214 48.344 171.43 47.672C172.678 47 173.686 45.992 174.454 44.648C175.222 43.304 175.606 41.672 175.606 39.752C175.606 37.832 175.238 36.216 174.502 34.904C173.766 33.56 172.79 32.552 171.574 31.88C170.358 31.208 169.046 30.872 167.638 30.872C166.23 30.872 164.918 31.208 163.702 31.88C162.518 32.552 161.574 33.56 160.87 34.904C160.166 36.216 159.814 37.832 159.814 39.752C159.814 42.6 160.534 44.808 161.974 46.376C163.446 47.912 165.286 48.68 167.494 48.68ZM192.103 17.48V53H186.631V17.48H192.103ZM202.072 23.048C201.08 23.048 200.248 22.712 199.576 22.04C198.904 21.368 198.568 20.536 198.568 19.544C198.568 18.552 198.904 17.72 199.576 17.048C200.248 16.376 201.08 16.04 202.072 16.04C203.032 16.04 203.848 16.376 204.52 17.048C205.192 17.72 205.528 18.552 205.528 19.544C205.528 20.536 205.192 21.368 204.52 22.04C203.848 22.712 203.032 23.048 202.072 23.048ZM204.76 26.552V53H199.288V26.552H204.76ZM223.416 53.432C220.92 53.432 218.664 52.872 216.648 51.752C214.632 50.6 213.048 49 211.896 46.952C210.744 44.872 210.168 42.472 210.168 39.752C210.168 37.064 210.76 34.68 211.944 32.6C213.128 30.52 214.744 28.92 216.792 27.8C218.84 26.68 221.128 26.12 223.656 26.12C226.184 26.12 228.472 26.68 230.52 27.8C232.568 28.92 234.184 30.52 235.368 32.6C236.552 34.68 237.144 37.064 237.144 39.752C237.144 42.44 236.536 44.824 235.32 46.904C234.104 48.984 232.44 50.6 230.328 51.752C228.248 52.872 225.944 53.432 223.416 53.432ZM223.416 48.68C224.824 48.68 226.136 48.344 227.352 47.672C228.6 47 229.608 45.992 230.376 44.648C231.144 43.304 231.528 41.672 231.528 39.752C231.528 37.832 231.16 36.216 230.424 34.904C229.688 33.56 228.712 32.552 227.496 31.88C226.28 31.208 224.968 30.872 223.56 30.872C222.152 30.872 220.84 31.208 219.624 31.88C218.44 32.552 217.496 33.56 216.792 34.904C216.088 36.216 215.736 37.832 215.736 39.752C215.736 42.6 216.456 44.808 217.896 46.376C219.368 47.912 221.208 48.68 223.416 48.68Z" fill="#637A98"/>
<path d="M41.0469 57.8H238.968V60.2H41.0469V57.8Z" fill="#637A98"/>
<rect x="269" y="35" width="11" height="9" fill="#D9D9D9" fill-opacity="0.01"/>
<rect y="35" width="11" height="9" fill="#D9D9D9" fill-opacity="0.01"/>
</svg>
