<svg width="25" height="34" viewBox="0 0 25 34" fill="none" xmlns="http://www.w3.org/2000/svg">
<path d="M9.00461 0.578549C9.08423 0.00327912 9.91555 0.00327513 9.99517 0.578545L11.3062 10.0512C11.3359 10.2659 11.5006 10.437 11.7141 10.4749L17.9546 11.5832C18.4717 11.675 18.5156 12.4001 18.0133 12.5536L11.6614 14.4952C11.4752 14.5522 11.339 14.712 11.3123 14.9049L9.99517 24.4214C9.91555 24.9967 9.08423 24.9967 9.00461 24.4214L7.68751 14.9049C7.66082 14.712 7.52459 14.5522 7.33839 14.4952L0.986463 12.5536C0.484163 12.4001 0.528045 11.675 1.0452 11.5832L7.28573 10.4749C7.49917 10.437 7.66387 10.2659 7.69359 10.0512L9.00461 0.578549Z" fill="#ACB9C6" fill-opacity="0.6"/>
<path d="M18.5049 20.4609C18.5868 19.8886 19.413 19.8886 19.4949 20.4609L20.1858 25.2922C20.2165 25.5069 20.3822 25.6774 20.5961 25.7141L23.8849 26.2793C24.4064 26.369 24.4495 27.1015 23.942 27.2516L20.545 28.2564C20.3575 28.3119 20.2196 28.4716 20.1919 28.6651L19.4949 33.5391C19.413 34.1113 18.5868 34.1113 18.5049 33.539L17.8079 28.6651C17.7802 28.4716 17.6422 28.3119 17.4548 28.2564L14.0578 27.2516C13.5503 27.1015 13.5934 26.369 14.1149 26.2793L17.4037 25.7141C17.6175 25.6774 17.7833 25.5069 17.814 25.2922L18.5049 20.4609Z" fill="#ACB9C6" fill-opacity="0.6"/>
</svg>
