<svg width="753" height="52" viewBox="0 0 753 52" fill="none" xmlns="http://www.w3.org/2000/svg">
<path d="M0.488 24.704C0.968 21.952 1.944 19.552 3.416 17.504C4.888 15.424 6.712 13.824 8.888 12.704C11.096 11.552 13.48 10.976 16.04 10.976C19.336 10.976 21.912 11.792 23.768 13.424C25.656 15.056 26.712 17.376 26.936 20.384H19.688C19.496 19.232 19 18.336 18.2 17.696C17.4 17.024 16.328 16.688 14.984 16.688C13.064 16.688 11.416 17.392 10.04 18.8C8.696 20.176 7.8 22.144 7.352 24.704C7.192 25.6 7.112 26.368 7.112 27.008C7.112 28.832 7.56 30.24 8.456 31.232C9.352 32.192 10.6 32.672 12.2 32.672C14.888 32.672 16.872 31.456 18.152 29.024H25.4C24.152 31.904 22.28 34.192 19.784 35.888C17.32 37.584 14.472 38.432 11.24 38.432C7.88 38.432 5.192 37.488 3.176 35.6C1.192 33.68 0.2 31.088 0.2 27.824C0.2 26.832 0.296 25.792 0.488 24.704ZM40.595 38.432C38.323 38.432 36.307 37.968 34.547 37.04C32.819 36.112 31.475 34.8 30.515 33.104C29.555 31.408 29.075 29.456 29.075 27.248C29.075 24.24 29.779 21.504 31.187 19.04C32.627 16.544 34.579 14.576 37.043 13.136C39.539 11.696 42.307 10.976 45.347 10.976C47.619 10.976 49.635 11.456 51.395 12.416C53.187 13.344 54.563 14.656 55.523 16.352C56.515 18.048 57.011 20 57.011 22.208C57.011 25.248 56.291 28 54.851 30.464C53.411 32.928 51.427 34.88 48.899 36.32C46.403 37.728 43.635 38.432 40.595 38.432ZM41.507 32.672C43.107 32.672 44.563 32.208 45.875 31.28C47.187 30.352 48.211 29.12 48.947 27.584C49.683 26.048 50.051 24.432 50.051 22.736C50.051 20.816 49.507 19.344 48.419 18.32C47.363 17.264 46.019 16.736 44.387 16.736C42.755 16.736 41.299 17.2 40.019 18.128C38.771 19.056 37.795 20.304 37.091 21.872C36.387 23.408 36.035 25.04 36.035 26.768C36.035 28.656 36.531 30.112 37.523 31.136C38.547 32.16 39.875 32.672 41.507 32.672ZM78.7884 11.024C81.5404 11.024 83.7004 11.776 85.2684 13.28C86.8684 14.752 87.6684 16.864 87.6684 19.616C87.6684 20.64 87.5884 21.568 87.4284 22.4L84.6444 38H77.9724L80.5644 23.312C80.6604 22.736 80.7084 22.176 80.7084 21.632C80.7084 20.032 80.2764 18.816 79.4124 17.984C78.5804 17.152 77.3804 16.736 75.8124 16.736C74.0204 16.736 72.4844 17.28 71.2044 18.368C69.9564 19.424 69.1244 20.96 68.7084 22.976L66.0684 38H59.3004L64.0044 11.408H70.7724L70.1964 14.672C71.2844 13.552 72.5804 12.672 74.0844 12.032C75.5884 11.36 77.1564 11.024 78.7884 11.024ZM101.451 38.432C99.4988 38.432 97.7228 38.112 96.1228 37.472C94.5548 36.8 93.3068 35.888 92.3788 34.736C91.4828 33.552 91.0348 32.208 91.0348 30.704C91.0348 30.48 91.0668 30.112 91.1308 29.6H97.6588C97.5628 30.72 97.8988 31.632 98.6668 32.336C99.4348 33.008 100.523 33.344 101.931 33.344C103.211 33.344 104.267 33.12 105.099 32.672C105.963 32.192 106.395 31.504 106.395 30.608C106.395 29.808 105.995 29.168 105.195 28.688C104.427 28.208 103.195 27.664 101.499 27.056C99.8028 26.448 98.3948 25.856 97.2747 25.28C96.1548 24.704 95.1948 23.904 94.3948 22.88C93.5948 21.856 93.1948 20.56 93.1948 18.992C93.1948 17.424 93.6428 16.032 94.5388 14.816C95.4668 13.6 96.7468 12.656 98.3788 11.984C100.011 11.312 101.883 10.976 103.995 10.976C106.011 10.976 107.787 11.312 109.323 11.984C110.859 12.656 112.043 13.6 112.875 14.816C113.739 16 114.171 17.36 114.171 18.896C114.171 19.28 114.155 19.568 114.123 19.76H107.883C107.979 18.64 107.659 17.744 106.923 17.072C106.187 16.4 105.115 16.064 103.707 16.064C102.555 16.064 101.611 16.32 100.875 16.832C100.139 17.312 99.7708 17.968 99.7708 18.8C99.7708 19.632 100.187 20.32 101.019 20.864C101.851 21.376 103.131 21.952 104.859 22.592C106.587 23.264 107.963 23.888 108.987 24.464C110.043 25.008 110.955 25.776 111.723 26.768C112.491 27.728 112.875 28.944 112.875 30.416C112.875 32.048 112.379 33.472 111.387 34.688C110.395 35.904 109.035 36.832 107.307 37.472C105.579 38.112 103.627 38.432 101.451 38.432ZM126.503 29.792C126.471 29.984 126.455 30.24 126.455 30.56C126.455 31.2 126.631 31.664 126.983 31.952C127.367 32.208 127.991 32.336 128.855 32.336H132.023L131.015 38H126.743C121.943 38 119.543 36 119.543 32C119.543 31.232 119.607 30.48 119.735 29.744L121.991 16.928H118.823L119.783 11.408H122.999L124.151 4.832H130.919L129.767 11.408H135.671L134.711 16.928H128.759L126.503 29.792Z" fill="#E56075"/>
<path d="M149.037 24.608C149.037 21.92 149.565 19.536 150.621 17.456C151.709 15.376 153.181 13.776 155.037 12.656C156.893 11.536 158.957 10.976 161.229 10.976C162.957 10.976 164.605 11.36 166.173 12.128C167.741 12.864 168.989 13.856 169.917 15.104V2.48H176.733V38H169.917V34.064C169.085 35.376 167.917 36.432 166.413 37.232C164.909 38.032 163.165 38.432 161.181 38.432C158.941 38.432 156.893 37.856 155.037 36.704C153.181 35.552 151.709 33.936 150.621 31.856C149.565 29.744 149.037 27.328 149.037 24.608ZM169.965 24.704C169.965 23.072 169.645 21.68 169.005 20.528C168.365 19.344 167.501 18.448 166.413 17.84C165.325 17.2 164.157 16.88 162.909 16.88C161.661 16.88 160.509 17.184 159.453 17.792C158.397 18.4 157.533 19.296 156.861 20.48C156.221 21.632 155.901 23.008 155.901 24.608C155.901 26.208 156.221 27.616 156.861 28.832C157.533 30.016 158.397 30.928 159.453 31.568C160.541 32.208 161.693 32.528 162.909 32.528C164.157 32.528 165.325 32.224 166.413 31.616C167.501 30.976 168.365 30.08 169.005 28.928C169.645 27.744 169.965 26.336 169.965 24.704ZM186.704 8.24C185.52 8.24 184.528 7.872 183.728 7.136C182.96 6.368 182.576 5.424 182.576 4.304C182.576 3.184 182.96 2.256 183.728 1.52C184.528 0.751998 185.52 0.367998 186.704 0.367998C187.888 0.367998 188.864 0.751998 189.632 1.52C190.432 2.256 190.832 3.184 190.832 4.304C190.832 5.424 190.432 6.368 189.632 7.136C188.864 7.872 187.888 8.24 186.704 8.24ZM190.016 11.408V38H183.296V11.408H190.016ZM194.928 24.608C194.928 21.92 195.456 19.536 196.512 17.456C197.6 15.376 199.056 13.776 200.88 12.656C202.736 11.536 204.8 10.976 207.072 10.976C209.056 10.976 210.784 11.376 212.256 12.176C213.76 12.976 214.96 13.984 215.856 15.2V11.408H222.624V38H215.856V34.112C214.992 35.36 213.792 36.4 212.256 37.232C210.752 38.032 209.008 38.432 207.024 38.432C204.784 38.432 202.736 37.856 200.88 36.704C199.056 35.552 197.6 33.936 196.512 31.856C195.456 29.744 194.928 27.328 194.928 24.608ZM215.856 24.704C215.856 23.072 215.536 21.68 214.896 20.528C214.256 19.344 213.392 18.448 212.304 17.84C211.216 17.2 210.048 16.88 208.8 16.88C207.552 16.88 206.4 17.184 205.344 17.792C204.288 18.4 203.424 19.296 202.752 20.48C202.112 21.632 201.792 23.008 201.792 24.608C201.792 26.208 202.112 27.616 202.752 28.832C203.424 30.016 204.288 30.928 205.344 31.568C206.432 32.208 207.584 32.528 208.8 32.528C210.048 32.528 211.216 32.224 212.304 31.616C213.392 30.976 214.256 30.08 214.896 28.928C215.536 27.744 215.856 26.336 215.856 24.704ZM243.923 11.024C247.091 11.024 249.651 12.032 251.603 14.048C253.555 16.032 254.531 18.816 254.531 22.4V38H247.811V23.312C247.811 21.2 247.283 19.584 246.227 18.464C245.171 17.312 243.731 16.736 241.907 16.736C240.051 16.736 238.579 17.312 237.491 18.464C236.435 19.584 235.907 21.2 235.907 23.312V38H229.187V11.408H235.907V14.72C236.803 13.568 237.939 12.672 239.315 12.032C240.723 11.36 242.259 11.024 243.923 11.024ZM259.193 24.608C259.193 21.92 259.721 19.536 260.777 17.456C261.865 15.376 263.321 13.776 265.145 12.656C267.001 11.536 269.065 10.976 271.337 10.976C273.321 10.976 275.049 11.376 276.521 12.176C278.025 12.976 279.225 13.984 280.121 15.2V11.408H286.889V38H280.121V34.112C279.257 35.36 278.057 36.4 276.521 37.232C275.017 38.032 273.273 38.432 271.289 38.432C269.049 38.432 267.001 37.856 265.145 36.704C263.321 35.552 261.865 33.936 260.777 31.856C259.721 29.744 259.193 27.328 259.193 24.608ZM280.121 24.704C280.121 23.072 279.801 21.68 279.161 20.528C278.521 19.344 277.657 18.448 276.569 17.84C275.481 17.2 274.313 16.88 273.065 16.88C271.817 16.88 270.665 17.184 269.609 17.792C268.553 18.4 267.689 19.296 267.017 20.48C266.377 21.632 266.057 23.008 266.057 24.608C266.057 26.208 266.377 27.616 267.017 28.832C267.689 30.016 268.553 30.928 269.609 31.568C270.697 32.208 271.849 32.528 273.065 32.528C274.313 32.528 275.481 32.224 276.569 31.616C277.657 30.976 278.521 30.08 279.161 28.928C279.801 27.744 280.121 26.336 280.121 24.704ZM305.021 38.336C302.685 38.336 300.573 37.936 298.685 37.136C296.829 36.336 295.357 35.184 294.269 33.68C293.181 32.176 292.621 30.4 292.589 28.352H299.789C299.885 29.728 300.365 30.816 301.229 31.616C302.125 32.416 303.341 32.816 304.877 32.816C306.445 32.816 307.677 32.448 308.573 31.712C309.469 30.944 309.917 29.952 309.917 28.736C309.917 27.744 309.613 26.928 309.005 26.288C308.397 25.648 307.629 25.152 306.701 24.8C305.805 24.416 304.557 24 302.957 23.552C300.781 22.912 299.005 22.288 297.629 21.68C296.285 21.04 295.117 20.096 294.125 18.848C293.165 17.568 292.685 15.872 292.685 13.76C292.685 11.776 293.181 10.048 294.173 8.576C295.165 7.104 296.557 5.984 298.349 5.216C300.141 4.416 302.189 4.016 304.493 4.016C307.949 4.016 310.749 4.864 312.893 6.56C315.069 8.224 316.269 10.56 316.493 13.568H309.101C309.037 12.416 308.541 11.472 307.613 10.736C306.717 9.968 305.517 9.584 304.013 9.584C302.701 9.584 301.645 9.92 300.845 10.592C300.077 11.264 299.693 12.24 299.693 13.52C299.693 14.416 299.981 15.168 300.557 15.776C301.165 16.352 301.901 16.832 302.765 17.216C303.661 17.568 304.909 17.984 306.509 18.464C308.685 19.104 310.461 19.744 311.837 20.384C313.213 21.024 314.397 21.984 315.389 23.264C316.381 24.544 316.877 26.224 316.877 28.304C316.877 30.096 316.413 31.76 315.485 33.296C314.557 34.832 313.197 36.064 311.405 36.992C309.613 37.888 307.485 38.336 305.021 38.336ZM330.527 16.928V29.792C330.527 30.688 330.735 31.344 331.151 31.76C331.599 32.144 332.335 32.336 333.359 32.336H336.479V38H332.255C326.591 38 323.759 35.248 323.759 29.744V16.928H320.591V11.408H323.759V4.832H330.527V11.408H336.479V16.928H330.527ZM348.032 15.536C348.896 14.128 350.016 13.024 351.392 12.224C352.8 11.424 354.4 11.024 356.192 11.024V18.08H354.416C352.304 18.08 350.704 18.576 349.616 19.568C348.56 20.56 348.032 22.288 348.032 24.752V38H341.312V11.408H348.032V15.536ZM364.126 8.24C362.942 8.24 361.95 7.872 361.15 7.136C360.382 6.368 359.998 5.424 359.998 4.304C359.998 3.184 360.382 2.256 361.15 1.52C361.95 0.751998 362.942 0.367998 364.126 0.367998C365.31 0.367998 366.286 0.751998 367.054 1.52C367.854 2.256 368.254 3.184 368.254 4.304C368.254 5.424 367.854 6.368 367.054 7.136C366.286 7.872 365.31 8.24 364.126 8.24ZM367.438 11.408V38H360.718V11.408H367.438ZM388.814 11.024C391.982 11.024 394.542 12.032 396.494 14.048C398.446 16.032 399.422 18.816 399.422 22.4V38H392.702V23.312C392.702 21.2 392.174 19.584 391.118 18.464C390.062 17.312 388.622 16.736 386.798 16.736C384.942 16.736 383.47 17.312 382.382 18.464C381.326 19.584 380.798 21.2 380.798 23.312V38H374.078V11.408H380.798V14.72C381.694 13.568 382.83 12.672 384.206 12.032C385.614 11.36 387.15 11.024 388.814 11.024ZM416.228 10.976C418.212 10.976 419.956 11.376 421.46 12.176C422.964 12.944 424.148 13.952 425.012 15.2V11.408H431.78V38.192C431.78 40.656 431.284 42.848 430.292 44.768C429.3 46.72 427.812 48.256 425.828 49.376C423.844 50.528 421.444 51.104 418.628 51.104C414.852 51.104 411.748 50.224 409.316 48.464C406.916 46.704 405.556 44.304 405.236 41.264H411.908C412.26 42.48 413.012 43.44 414.164 44.144C415.348 44.88 416.772 45.248 418.436 45.248C420.388 45.248 421.972 44.656 423.188 43.472C424.404 42.32 425.012 40.56 425.012 38.192V34.064C424.148 35.312 422.948 36.352 421.412 37.184C419.908 38.016 418.18 38.432 416.228 38.432C413.988 38.432 411.94 37.856 410.084 36.704C408.228 35.552 406.756 33.936 405.668 31.856C404.612 29.744 404.084 27.328 404.084 24.608C404.084 21.92 404.612 19.536 405.668 17.456C406.756 15.376 408.212 13.776 410.036 12.656C411.892 11.536 413.956 10.976 416.228 10.976ZM425.012 24.704C425.012 23.072 424.692 21.68 424.052 20.528C423.412 19.344 422.548 18.448 421.46 17.84C420.372 17.2 419.204 16.88 417.956 16.88C416.708 16.88 415.556 17.184 414.5 17.792C413.444 18.4 412.58 19.296 411.908 20.48C411.268 21.632 410.948 23.008 410.948 24.608C410.948 26.208 411.268 27.616 411.908 28.832C412.58 30.016 413.444 30.928 414.5 31.568C415.588 32.208 416.74 32.528 417.956 32.528C419.204 32.528 420.372 32.224 421.46 31.616C422.548 30.976 423.412 30.08 424.052 28.928C424.692 27.744 425.012 26.336 425.012 24.704Z" fill="#6FBEBD"/>
<path d="M477.237 12.224V18.08H451.077V12.224H477.237ZM477.237 23.744V29.6H451.077V23.744H477.237Z" fill="#CBBEB0"/>
<path d="M494.928 24.608C494.928 21.92 495.456 19.536 496.512 17.456C497.6 15.376 499.056 13.776 500.88 12.656C502.736 11.536 504.8 10.976 507.072 10.976C509.056 10.976 510.784 11.376 512.256 12.176C513.76 12.976 514.96 13.984 515.856 15.2V11.408H522.624V38H515.856V34.112C514.992 35.36 513.792 36.4 512.256 37.232C510.752 38.032 509.008 38.432 507.024 38.432C504.784 38.432 502.736 37.856 500.88 36.704C499.056 35.552 497.6 33.936 496.512 31.856C495.456 29.744 494.928 27.328 494.928 24.608ZM515.856 24.704C515.856 23.072 515.536 21.68 514.896 20.528C514.256 19.344 513.392 18.448 512.304 17.84C511.216 17.2 510.048 16.88 508.8 16.88C507.552 16.88 506.4 17.184 505.344 17.792C504.288 18.4 503.424 19.296 502.752 20.48C502.112 21.632 501.792 23.008 501.792 24.608C501.792 26.208 502.112 27.616 502.752 28.832C503.424 30.016 504.288 30.928 505.344 31.568C506.432 32.208 507.584 32.528 508.8 32.528C510.048 32.528 511.216 32.224 512.304 31.616C513.392 30.976 514.256 30.08 514.896 28.928C515.536 27.744 515.856 26.336 515.856 24.704ZM535.907 15.536C536.771 14.128 537.891 13.024 539.267 12.224C540.675 11.424 542.275 11.024 544.067 11.024V18.08H542.291C540.179 18.08 538.579 18.576 537.491 19.568C536.435 20.56 535.907 22.288 535.907 24.752V38H529.187V11.408H535.907V15.536ZM556.417 16.928V29.792C556.417 30.688 556.625 31.344 557.041 31.76C557.489 32.144 558.225 32.336 559.249 32.336H562.369V38H558.145C552.481 38 549.649 35.248 549.649 29.744V16.928H546.481V11.408H549.649V4.832H556.417V11.408H562.369V16.928H556.417Z" fill="#E5B04B"/>
<path d="M603.744 23.84H594.672V33.152H588.336V23.84H579.264V17.984H588.336V8.672H594.672V17.984H603.744V23.84Z" fill="#BCB8B4"/>
<path d="M620.693 24.704C620.693 21.952 621.253 19.552 622.373 17.504C623.493 15.424 625.045 13.824 627.029 12.704C629.013 11.552 631.285 10.976 633.845 10.976C637.141 10.976 639.861 11.808 642.005 13.472C644.181 15.104 645.637 17.408 646.373 20.384H639.125C638.741 19.232 638.085 18.336 637.157 17.696C636.261 17.024 635.141 16.688 633.797 16.688C631.877 16.688 630.357 17.392 629.237 18.8C628.117 20.176 627.557 22.144 627.557 24.704C627.557 27.232 628.117 29.2 629.237 30.608C630.357 31.984 631.877 32.672 633.797 32.672C636.517 32.672 638.293 31.456 639.125 29.024H646.373C645.637 31.904 644.181 34.192 642.005 35.888C639.829 37.584 637.109 38.432 633.845 38.432C631.285 38.432 629.013 37.872 627.029 36.752C625.045 35.6 623.493 34 622.373 31.952C621.253 29.872 620.693 27.456 620.693 24.704ZM663.104 38.432C660.544 38.432 658.24 37.872 656.192 36.752C654.144 35.6 652.528 33.984 651.344 31.904C650.192 29.824 649.616 27.424 649.616 24.704C649.616 21.984 650.208 19.584 651.392 17.504C652.608 15.424 654.256 13.824 656.336 12.704C658.416 11.552 660.736 10.976 663.296 10.976C665.856 10.976 668.176 11.552 670.256 12.704C672.336 13.824 673.968 15.424 675.152 17.504C676.368 19.584 676.976 21.984 676.976 24.704C676.976 27.424 676.352 29.824 675.104 31.904C673.888 33.984 672.224 35.6 670.112 36.752C668.032 37.872 665.696 38.432 663.104 38.432ZM663.104 32.576C664.32 32.576 665.456 32.288 666.512 31.712C667.6 31.104 668.464 30.208 669.104 29.024C669.744 27.84 670.064 26.4 670.064 24.704C670.064 22.176 669.392 20.24 668.048 18.896C666.736 17.52 665.12 16.832 663.2 16.832C661.28 16.832 659.664 17.52 658.352 18.896C657.072 20.24 656.432 22.176 656.432 24.704C656.432 27.232 657.056 29.184 658.304 30.56C659.584 31.904 661.184 32.576 663.104 32.576ZM680.178 24.608C680.178 21.92 680.706 19.536 681.762 17.456C682.85 15.376 684.322 13.776 686.178 12.656C688.034 11.536 690.098 10.976 692.37 10.976C694.098 10.976 695.746 11.36 697.314 12.128C698.882 12.864 700.13 13.856 701.058 15.104V2.48H707.874V38H701.058V34.064C700.226 35.376 699.058 36.432 697.554 37.232C696.05 38.032 694.306 38.432 692.322 38.432C690.082 38.432 688.034 37.856 686.178 36.704C684.322 35.552 682.85 33.936 681.762 31.856C680.706 29.744 680.178 27.328 680.178 24.608ZM701.106 24.704C701.106 23.072 700.786 21.68 700.146 20.528C699.506 19.344 698.642 18.448 697.554 17.84C696.466 17.2 695.298 16.88 694.05 16.88C692.802 16.88 691.65 17.184 690.594 17.792C689.538 18.4 688.674 19.296 688.002 20.48C687.362 21.632 687.042 23.008 687.042 24.608C687.042 26.208 687.362 27.616 688.002 28.832C688.674 30.016 689.538 30.928 690.594 31.568C691.682 32.208 692.834 32.528 694.05 32.528C695.298 32.528 696.466 32.224 697.554 31.616C698.642 30.976 699.506 30.08 700.146 28.928C700.786 27.744 701.106 26.336 701.106 24.704ZM739.157 24.128C739.157 25.088 739.093 25.952 738.965 26.72H719.525C719.685 28.64 720.357 30.144 721.541 31.232C722.725 32.32 724.181 32.864 725.909 32.864C728.405 32.864 730.181 31.792 731.237 29.648H738.485C737.717 32.208 736.245 34.32 734.069 35.984C731.893 37.616 729.221 38.432 726.053 38.432C723.493 38.432 721.189 37.872 719.141 36.752C717.125 35.6 715.541 33.984 714.389 31.904C713.269 29.824 712.709 27.424 712.709 24.704C712.709 21.952 713.269 19.536 714.389 17.456C715.509 15.376 717.077 13.776 719.093 12.656C721.109 11.536 723.429 10.976 726.053 10.976C728.581 10.976 730.837 11.52 732.821 12.608C734.837 13.696 736.389 15.248 737.477 17.264C738.597 19.248 739.157 21.536 739.157 24.128ZM732.197 22.208C732.165 20.48 731.541 19.104 730.325 18.08C729.109 17.024 727.621 16.496 725.861 16.496C724.197 16.496 722.789 17.008 721.637 18.032C720.517 19.024 719.829 20.416 719.573 22.208H732.197Z" fill="#6E84E1"/>
<path d="M748.238 18.656C747.022 18.656 746.014 18.288 745.214 17.552C744.446 16.784 744.062 15.84 744.062 14.72C744.062 13.6 744.446 12.672 745.214 11.936C746.014 11.168 747.022 10.784 748.238 10.784C749.422 10.784 750.398 11.168 751.166 11.936C751.934 12.672 752.318 13.6 752.318 14.72C752.318 15.84 751.934 16.784 751.166 17.552C750.398 18.288 749.422 18.656 748.238 18.656ZM752.654 30.944L747.038 44.432H742.718L745.838 30.944H752.654Z" fill="#A3AEB8"/>
</svg>
